# xmcd CD database file
# Copyright (C) 1995-1998 Ti Kan
#
# Track frame offsets:
#	150
#	14884
#	38805
#	55605
#	70527
#	91457
#	114625
#	133790
#	150525
#	170105
#	186605
#	203402
#	226000
#	242715
#	260862
#
# Disc length: 4112 seconds
#
# Revision: 1
# Processed by: cddbd v1.4b41PL3 Copyright (c) Steve Scherf et al.
# Submitted via: CDex 1.30Release
#
DISCID=d2100e0f
DTITLE=Dr. Mablues and the detail horns - Rollin' down the Road
DYEAR=1997
DGENRE=Blues
TTITLE0=Rollin' down the road
TTITLE1=A night on a train
TTITLE2=The pneumonia Blues
TTITLE3=Stupid
TTITLE4=It serves me right suffer
TTITLE5=I'll be there
TTITLE6=The Joker
TTITLE7=Fire and Rain
TTITLE8=I just can't please her
TTITLE9=Hey, Mama
TTITLE10=Jump
TTITLE11=Wrapped around your Finger
TTITLE12=Hey, Mama (ungestöpselt)
TTITLE13=Highway to Hell
TTITLE14=Von drauß' vom Walde
EXTD=YEAR: 1997 ID3G:   0
EXTT0=
EXTT1=
EXTT2=
EXTT3=
EXTT4=
EXTT5=
EXTT6=
EXTT7=
EXTT8=
EXTT9=
EXTT10=
EXTT11=
EXTT12=
EXTT13=
EXTT14=
PLAYORDER=
